<?xml version="1.0" encoding="utf-8"?>
<!-- Generator: Adobe Illustrator 19.0.0, SVG Export Plug-In . SVG Version: 6.00 Build 0)  -->
<svg version="1.1" id="Layer_1" xmlns="http://www.w3.org/2000/svg" xmlns:xlink="http://www.w3.org/1999/xlink" x="0px" y="0px"
	 viewBox="-701 598.3 324 101.7" style="enable-background:new -701 598.3 324 101.7;" xml:space="preserve">
<style type="text/css">
	.st0{fill:#FFFFFF;}
</style>
<path class="st0" d="M-618.4,660.5v0.2c0,11.2-8.6,17.4-20.8,17.4c-8,0-16-2.6-22.6-7.8c-0.8-0.6-0.9-1.8-0.3-2.6l5-6
	c0.6-0.8,1.8-0.9,2.5-0.3c4.7,3.5,9.6,5.7,15.5,5.7c5.1,0,8.2-2,8.2-5.3v-0.2c0-3.1-1.9-4.7-11.4-7.1c-11.3-2.9-18.7-6-18.7-17.1
	v-0.2c0-10.2,8.3-16.9,19.8-16.9c7.6,0,14.1,2.2,19.6,6.1c0.8,0.6,1,1.7,0.4,2.5l-4.4,6.4c-0.6,0.8-1.7,1-2.5,0.5
	c-4.5-2.9-8.9-4.6-13.2-4.6c-4.8,0-7.3,2.2-7.3,4.9v0.2c0,3.7,2.4,4.9,12.2,7.4C-624.9,646.6-618.4,650.7-618.4,660.5z
	 M-555.9,621.1h-8.8c-1,0-1.8,0.8-1.8,1.8v18.6c0,1-0.8,1.8-1.8,1.8h-19.3c-1,0-1.8-0.8-1.8-1.8v-18.6c0-1-0.8-1.8-1.8-1.8h-8.8
	c-1,0-1.8,0.8-1.8,1.8v52.5c0,1,0.8,1.8,1.8,1.8h8.8c1,0,1.8-0.8,1.8-1.8v-18.9c0-1,0.8-1.8,1.8-1.8h19.3c1,0,1.8,0.8,1.8,1.8v18.9
	c0,1,0.8,1.8,1.8,1.8h8.8c1,0,1.8-0.8,1.8-1.8v-52.5C-554,621.9-554.8,621.1-555.9,621.1L-555.9,621.1z M-477.1,649v0.2
	c0,16-12.7,29.1-30.2,29.1s-30-12.9-30-28.9v-0.2c0-16,12.7-29.1,30.2-29.1S-477.1,633-477.1,649z M-490.1,649.2
	c0-9.6-7.1-17.7-17.2-17.7c-10,0-17,7.9-17,17.5v0.2c0,9.6,7.1,17.7,17.2,17.7c10,0,17-7.9,17-17.5V649.2z M-415.5,640.5v0.2
	c0,13-10.2,19.7-22.9,19.7h-7.6c-1,0-1.8,0.8-1.8,1.8v13.2c0,1-0.8,1.8-1.8,1.8h-8.8c-1,0-1.8-0.8-1.8-1.8v-52.5
	c0-1,0.8-1.8,1.8-1.8h21.3C-423.7,621.1-415.5,629-415.5,640.5z M-428.1,640.7c0-5.5-3.9-8.5-10.1-8.5h-7.8c-1,0-1.8,0.8-1.8,1.8
	v13.5c0,1,0.8,1.8,1.8,1.8h8C-431.8,649.3-428.1,645.6-428.1,640.7L-428.1,640.7z M-378.5,649.1c1,1.7,1.5,3.6,1.5,5.7
	c0,5.6-4.1,10.3-9.4,11.2v30c0,2.2-1.8,3.9-3.9,3.9h-297.4c-2.1,0-3.8-1.7-3.8-3.8V666c-5.4-0.9-9.5-5.6-9.5-11.2
	c0-2.1,0.6-4,1.5-5.7c-1-1.7-1.5-3.6-1.5-5.7c0-5.6,4.1-10.3,9.4-11.2v-30c0-2.2,1.8-3.9,3.9-3.9h297.4c2.1,0,3.8,1.7,3.8,3.8v30.1
	c5.4,0.9,9.4,5.6,9.4,11.2C-377,645.5-377.6,647.5-378.5,649.1L-378.5,649.1z M-388.4,636.2c-4,0-7.3,3.3-7.3,7.3
	c0,0.8,0.1,1.6,0.4,2.3c1.9-1.5,4.3-2.4,6.9-2.4s5,0.9,6.9,2.4c0.2-0.7,0.4-1.5,0.4-2.3C-381.1,639.4-384.4,636.2-388.4,636.2z
	 M-388.4,647.4c-1.8,0-3.4,0.6-4.7,1.7c1.3,1.1,2.9,1.7,4.7,1.7c1.8,0,3.4-0.6,4.7-1.7C-385,648-386.6,647.4-388.4,647.4z
	 M-696.9,643.5c0,0.8,0.1,1.6,0.4,2.3c1.9-1.5,4.3-2.4,6.9-2.4c2.6,0,5,0.9,6.9,2.4c0.2-0.7,0.4-1.5,0.4-2.3c0-4-3.3-7.3-7.3-7.3
	S-696.9,639.4-696.9,643.5z M-689.6,647.4c-1.8,0-3.4,0.6-4.7,1.7c1.3,1.1,2.9,1.7,4.7,1.7c1.8,0,3.4-0.6,4.7-1.7
	C-686.2,648-687.8,647.4-689.6,647.4z M-689.6,662c4,0,7.3-3.3,7.3-7.3c0-0.8-0.1-1.5-0.3-2.2c-1.9,1.5-4.3,2.4-7,2.4
	c-2.6,0-5-0.9-7-2.4c-0.2,0.7-0.3,1.4-0.3,2.2C-696.9,658.7-693.6,662-689.6,662z M-390.5,693.6V666c-5.3-1-9.3-5.6-9.3-11.2
	c0-2.1,0.6-4,1.5-5.7c-1-1.7-1.5-3.6-1.5-5.7c0-5.6,4-10.2,9.3-11.2v-27.5c0-1.3-1-2.3-2.3-2.3h-292.4c-1.3,0-2.3,1-2.3,2.3v27.6
	c5.3,1,9.3,5.6,9.3,11.2c0,2.1-0.6,4-1.5,5.7c1,1.7,1.5,3.6,1.5,5.7c0,5.6-4,10.2-9.3,11.2v27.6c0,1.3,1,2.3,2.3,2.3h292.4
	C-391.5,696-390.5,694.9-390.5,693.6L-390.5,693.6z M-381.1,654.7c0-0.8-0.1-1.5-0.3-2.2c-1.9,1.5-4.3,2.4-7,2.4s-5-0.9-7-2.4
	c-0.2,0.7-0.3,1.4-0.3,2.2c0,4,3.3,7.3,7.3,7.3S-381.1,658.7-381.1,654.7z"/>
</svg>
